<svg xmlns="http://www.w3.org/2000/svg" viewBox="0 0 800 600" width="800" height="600">
  <defs>
    <radialGradient id="g2" cx="65%" cy="35%" r="75%">
      <stop offset="0%" stop-color="#FF2E2E"/>
      <stop offset="55%" stop-color="#0A0A0A"/>
      <stop offset="100%" stop-color="#000000"/>
    </radialGradient>
  </defs>
  <rect width="800" height="600" fill="url(#g2)"/>
  <g fill="none" stroke="#FF6538" stroke-width="1" opacity="0.5">
    <rect x="220" y="180" width="360" height="240" rx="8"/>
    <line x1="220" y1="230" x2="580" y2="230"/>
    <line x1="300" y1="180" x2="300" y2="420"/>
    <line x1="420" y1="180" x2="420" y2="420"/>
  </g>
  <g fill="#FF6538" opacity="0.85">
    <rect x="240" y="250" width="40" height="10" rx="2"/>
    <rect x="240" y="275" width="60" height="10" rx="2"/>
    <rect x="440" y="250" width="110" height="10" rx="2"/>
    <rect x="440" y="275" width="80" height="10" rx="2"/>
    <rect x="440" y="300" width="120" height="10" rx="2"/>
  </g>
  <polyline points="240,380 300,350 360,365 420,320 480,335 540,300" fill="none" stroke="#F5F5F5" stroke-width="2" opacity="0.7"/>
  <text x="32" y="562" font-family="monospace" font-size="16" fill="#F5F5F5" opacity="0.55">TODO: replace with real dashboard / product screenshot</text>
</svg>
