<svg xmlns="http://www.w3.org/2000/svg" viewBox="0 0 900 1200" width="900" height="1200">
  <defs>
    <linearGradient id="signupBg" x1="0%" y1="0%" x2="0%" y2="100%">
      <stop offset="0%" stop-color="#1A1A1A"/>
      <stop offset="55%" stop-color="#0A0A0A"/>
      <stop offset="100%" stop-color="#000000"/>
    </linearGradient>
    <radialGradient id="signupGlow" cx="50%" cy="18%" r="60%">
      <stop offset="0%" stop-color="#FF2E2E" stop-opacity="0.16"/>
      <stop offset="100%" stop-color="#FF2E2E" stop-opacity="0"/>
    </radialGradient>
  </defs>

  <rect width="900" height="1200" fill="url(#signupBg)"/>
  <rect width="900" height="1200" fill="url(#signupGlow)"/>

  <!-- dashed shipping route arcing across the upper portion -->
  <path d="M 90 300 Q 450 90 810 340" fill="none" stroke="#FF2E2E" stroke-width="3" stroke-dasharray="12 12" opacity="0.85"/>
  <circle cx="90" cy="300" r="8" fill="#FF6538"/>
  <circle cx="810" cy="340" r="8" fill="#FF6538"/>
  <circle cx="90" cy="300" r="16" fill="none" stroke="#FF6538" stroke-width="1.5" opacity="0.5"/>
  <circle cx="810" cy="340" r="16" fill="none" stroke="#FF6538" stroke-width="1.5" opacity="0.5"/>

  <!-- horizon -->
  <line x1="0" y1="820" x2="900" y2="820" stroke="#333333" stroke-width="1" opacity="0.5"/>

  <!-- water -->
  <rect x="0" y="820" width="900" height="380" fill="#000000"/>
  <g stroke="#1A1A1A" stroke-width="2" opacity="0.7">
    <line x1="0" y1="880" x2="900" y2="880"/>
    <line x1="0" y1="940" x2="900" y2="940"/>
    <line x1="0" y1="1000" x2="900" y2="1000"/>
  </g>

  <!-- abstract cargo ship silhouette -->
  <g fill="#1A1A1A" stroke="#333333" stroke-width="2">
    <path d="M170 820 L230 730 L680 730 L750 820 Z"/>
    <rect x="290" y="650" width="80" height="80"/>
    <rect x="380" y="625" width="80" height="105"/>
    <rect x="470" y="660" width="80" height="70"/>
    <rect x="560" y="635" width="80" height="95"/>
    <rect x="360" y="545" width="55" height="80" fill="#0A0A0A"/>
  </g>

  <!-- crane mast -->
  <g stroke="#333333" stroke-width="3" opacity="0.7">
    <line x1="700" y1="730" x2="700" y2="600"/>
    <line x1="700" y1="600" x2="790" y2="640"/>
  </g>

</svg>
